<?xml version="1.0" encoding="iso-8859-1"?>
<!-- Generator: Adobe Illustrator 19.0.0, SVG Export Plug-In . SVG Version: 6.00 Build 0)  -->
<svg version="1.1" id="Layer_1" xmlns="http://www.w3.org/2000/svg" xmlns:xlink="http://www.w3.org/1999/xlink" x="0px" y="0px"
	 viewBox="0 0 512 512" style="enable-background:new 0 0 512 512;" xml:space="preserve">
<circle style="fill:#0575A5;" cx="256" cy="256" r="256"/>
<path style="fill:#025E90;" d="M506.964,306.673L388.306,188.014c-16.522-16.53-39.383-26.734-64.617-26.734
	c-26.842,0-50.941,11.484-67.658,29.842l-0.036,0.038c-16.714-18.36-40.814-29.88-67.622-29.88
	c-50.575,0-91.461,40.852-91.461,91.359c0,1.098,0.036,2.194,0.069,3.29c-0.036,1.096-0.069,2.161-0.069,3.259
	c0,24.351,9.505,46.472,25.047,62.899l3.512,3.505l181.361,181.343C407.485,486.653,486.746,407.347,506.964,306.673z"/>
<path style="fill:#B8D1E6;" d="M415.086,259.192c0,50.486-40.934,91.528-91.392,91.528c-50.578,0-91.466-41.042-91.466-91.528
	c0-50.527,40.888-91.379,91.466-91.379C374.149,167.813,415.086,208.666,415.086,259.192z"/>
<path style="fill:#E1EFFA;" d="M415.086,252.659c0,50.481-40.934,91.523-91.392,91.523c-50.578,0-91.466-41.042-91.466-91.523
	c-0.003-50.532,40.888-91.379,91.464-91.379C374.149,161.28,415.086,202.127,415.086,252.659z"/>
<path style="fill:#F2F9FF;" d="M323.692,323.31c-39.03,0-70.638-31.631-70.638-70.659c0-38.958,31.608-70.679,70.638-70.679
	c38.925,0,70.656,31.724,70.656,70.679C394.348,291.679,362.616,323.31,323.692,323.31z"/>
<g>
	<path style="fill:#B8D1E6;" d="M291.574,264.66h-6.188v-7.946h4.669c-0.12-1.285-0.12-2.678-0.12-4.086
		c0-1.513,0.12-2.906,0.236-4.421h-4.785v-7.951h6.295c5.02-17.014,20.303-27.853,39.081-27.853c15.629,0,25.428,8.033,31.15,17.359
		l-11.556,6.072c-3.727-6.536-11.313-11.32-19.594-11.32c-11.197,0-20.296,6.2-24.374,15.741h31.26v7.951h-33.472
		c-0.125,1.516-0.241,2.908-0.241,4.421c0,1.408,0,2.801,0.241,4.086h33.472v7.946h-31.373c4.081,9.782,13.169,16.082,24.486,16.082
		c8.282,0,15.867-4.902,19.594-11.315l11.666,5.837c-5.939,9.326-15.629,17.613-31.26,17.613
		C311.869,292.877,296.466,281.907,291.574,264.66z"/>
	<path style="fill:#B8D1E6;" d="M258.708,258.278c0-38.904,31.634-70.684,70.607-70.684c18.074,0,34.54,6.817,47.032,18.028
		c-12.969-14.52-31.726-23.649-52.654-23.649c-39.03,0-70.638,31.724-70.638,70.679c0,20.956,9.175,39.777,23.652,52.728
		C265.5,292.864,258.708,276.375,258.708,258.278z"/>
</g>
<path style="fill:#BCD5EA;" d="M385.229,320.307c-16.233,14.822-37.837,23.885-61.542,23.885c-49.334,0-89.472-39.094-91.392-87.859
	c0-0.128,0.026-0.282,0.026-0.41c-0.026-0.538-0.051-1.075-0.077-1.638c0-0.538-0.026-1.101-0.026-1.638
	c0-0.947,0.026-1.92,0.051-2.867c0-0.614,0.026-1.229,0.077-1.843c0.077-1.766,0.23-3.507,0.41-5.248
	c0.051-0.563,0.128-1.126,0.205-1.69c0.256-1.997,0.563-3.942,0.922-5.862c0.128-0.64,0.256-1.28,0.41-1.92
	c0.154-0.666,0.282-1.331,0.435-1.997c0.026-0.051,0.051-0.102,0.051-0.154c0.333-1.357,0.691-2.688,1.075-4.019
	c0.205-0.666,0.41-1.357,0.614-2.022c1.075-3.354,2.33-6.63,3.738-9.805c1.152-2.534,2.406-5.018,3.763-7.424
	c1.203-2.125,2.509-4.224,3.866-6.246c0.973-1.434,1.946-2.816,2.995-4.173c0.717-0.973,1.485-1.92,2.253-2.867
	c0.973-1.152,1.946-2.304,2.97-3.405l14.746,14.746c-11.036,12.467-17.741,28.851-17.741,46.797c0,1.229,0.026,2.432,0.102,3.635
	c0.051,1.203,0.128,2.381,0.256,3.533v0.074c0.102,0.819,0.179,1.615,0.307,2.406c0.179,1.334,0.384,2.637,0.64,3.917
	c0.102,0.538,0.205,1.05,0.333,1.587c0,0.026,0,0.074,0.026,0.102c0.179,0.794,0.358,1.613,0.563,2.404
	c0.205,0.845,0.435,1.664,0.691,2.483c0.051,0.179,0.102,0.361,0.179,0.566c0.154,0.612,0.358,1.203,0.563,1.764
	c0.41,1.178,0.819,2.33,1.28,3.482c0.435,1.152,0.922,2.278,1.459,3.405c0.463,1.124,1.024,2.227,1.615,3.302
	c1.306,2.506,2.762,4.941,4.324,7.245c1.562,2.301,3.302,4.506,5.146,6.605c1.229,1.408,2.509,2.765,3.84,4.045
	c0.742,0.742,1.539,1.482,2.33,2.176c12.467,11.162,28.928,17.92,46.979,17.92c17.92,0,34.301-6.707,46.771-17.766L385.229,320.307z
	"/>
<path style="fill:#9AB9D6;" d="M276.71,305.382c-0.794-0.694-1.587-1.434-2.33-2.176c-1.331-1.308-2.611-2.662-3.84-4.045
	c-1.818-2.099-3.533-4.303-5.146-6.605c-1.562-2.304-3.021-4.739-4.324-7.245c-0.566-1.075-1.103-2.179-1.615-3.302
	c-0.509-1.126-0.998-2.253-1.459-3.405c-0.461-1.152-0.87-2.304-1.28-3.482c-0.205-0.586-0.384-1.178-0.563-1.764
	c-0.077-0.205-0.128-0.384-0.179-0.566c-0.256-0.817-0.486-1.638-0.691-2.483c-0.205-0.794-0.384-1.613-0.563-2.404
	c-0.026-0.028-0.026-0.077-0.026-0.102c-0.128-0.538-0.23-1.05-0.333-1.587c-0.256-1.28-0.461-2.586-0.64-3.917
	c-0.128-0.794-0.205-1.587-0.307-2.406v-0.074c-0.128-1.152-0.205-2.33-0.256-3.533c-0.077-1.203-0.102-2.406-0.102-3.635
	c0-17.946,6.707-34.33,17.741-46.797l5.658,5.658c-11.036,12.493-17.743,28.877-17.743,46.771
	C258.714,276.378,265.498,292.864,276.71,305.382z"/>
<path style="fill:#CADDED;" d="M370.458,305.536c-12.467,11.059-28.851,17.766-46.771,17.766c-18.051,0-34.509-6.758-46.979-17.92
	c-11.213-12.518-17.997-29.005-17.997-47.104c0-17.894,6.707-34.278,17.743-46.771l19.377,19.379
	c-1.764,2.842-3.146,5.99-4.145,9.37h-6.298v7.962h4.785c-0.128,1.51-0.23,2.893-0.23,4.403c0,1.408,0,2.816,0.102,4.096h-4.657
	v7.936h6.195c4.887,17.254,20.275,28.237,39.168,28.237c8.576,0,15.36-2.509,20.736-6.323L370.458,305.536z"/>
<path style="fill:#9AB9D6;" d="M351.488,286.566c-5.376,3.812-12.16,6.323-20.736,6.323c-18.893,0-34.281-10.982-39.168-28.237
	h-6.195v-7.936h4.657c-0.102-1.28-0.102-2.688-0.102-4.096c0-1.51,0.102-2.893,0.23-4.403h-4.785v-7.962h6.298
	c0.998-3.379,2.381-6.528,4.145-9.37l17.334,17.331h-8.986c-0.131,1.51-0.259,2.893-0.259,4.403c0,1.408,0,2.816,0.259,4.096h17.485
	l7.91,7.936h-23.299c4.073,9.779,13.161,16.102,24.476,16.102c4.198,0,8.192-1.254,11.622-3.302L351.488,286.566z"/>
<g>
	<path style="fill:#CADDED;" d="M321.664,256.717h-17.485c-0.259-1.28-0.259-2.688-0.259-4.096c0-1.51,0.128-2.893,0.259-4.403
		h8.986L321.664,256.717z"/>
	<path style="fill:#CADDED;" d="M342.374,277.453c-3.43,2.048-7.424,3.302-11.622,3.302c-11.315,0-20.403-6.323-24.476-16.102
		h23.299L342.374,277.453z"/>
</g>
<path style="fill:#9ABBD6;" d="M388.557,323.635c-16.563,16.717-39.501,27.085-64.87,27.085c-50.56,0-91.469-41.037-91.469-91.52
	c0-0.973,0.051-1.92,0.077-2.867c1.92,48.768,42.061,87.859,91.392,87.859c23.706,0,45.309-9.062,61.542-23.885L388.557,323.635z"/>
<path style="fill:#F28124;" d="M279.772,259.192c0,50.486-40.934,91.528-91.395,91.528c-50.573,0-91.466-41.042-91.466-91.528
	c0-50.527,40.891-91.379,91.466-91.379C238.838,167.813,279.772,208.666,279.772,259.192z"/>
<path style="fill:#FF8E31;" d="M279.772,252.659c0,50.481-40.934,91.523-91.395,91.523c-50.573,0-91.466-41.042-91.466-91.523
	c0-50.532,40.893-91.379,91.466-91.379C238.838,161.28,279.772,202.127,279.772,252.659z"/>
<path style="fill:#FF9D4D;" d="M188.378,323.31c-39.027,0-70.638-31.631-70.638-70.659c0-38.958,31.611-70.679,70.638-70.679
	c38.93,0,70.659,31.724,70.659,70.679C259.036,291.679,227.308,323.31,188.378,323.31z"/>
<g>
	<path style="fill:#F28124;" d="M184.666,292.764c-12.024-0.94-21.007-5.714-27.187-12.119l7.703-10.627
		c4.308,4.79,11.077,9.216,19.482,10.506v-22.641c-12.024-3.021-24.625-7.35-24.625-22.508c0-11.899,9.567-21.35,24.625-22.628
		v-10.734h9.316v10.849c9.452,1.039,17.385,4.785,23.455,10.614l-7.7,10.15c-4.434-4.426-10.028-7.114-15.752-8.287v20.188
		c12.132,3.139,25.316,7.698,25.316,23.322c0,11.901-7.818,22.397-25.316,23.913v10.501h-9.316V292.764z M184.666,243.08v-18.317
		c-6.546,0.814-10.621,4.439-10.621,9.564C174.044,238.879,178.478,241.208,184.666,243.08z M193.981,260.332v20.314
		c8.059-1.18,11.318-5.965,11.318-10.506C205.299,264.891,200.412,262.328,193.981,260.332z"/>
	<path style="fill:#F28124;" d="M123.392,258.278c0-38.904,31.636-70.684,70.607-70.684c18.079,0,34.542,6.817,47.035,18.028
		c-12.972-14.52-31.729-23.649-52.657-23.649c-39.027,0-70.638,31.724-70.638,70.679c0,20.956,9.175,39.777,23.654,52.728
		C130.186,292.864,123.392,276.375,123.392,258.278z"/>
</g>
<g>
</g>
<g>
</g>
<g>
</g>
<g>
</g>
<g>
</g>
<g>
</g>
<g>
</g>
<g>
</g>
<g>
</g>
<g>
</g>
<g>
</g>
<g>
</g>
<g>
</g>
<g>
</g>
<g>
</g>
</svg>
